<svg id="visual" viewBox="0 0 900 600" width="900" height="600" xmlns="http://www.w3.org/2000/svg" xmlns:xlink="http://www.w3.org/1999/xlink" version="1.1"><rect x="0" y="0" width="900" height="600" fill="#578E7E"></rect><path d="M701 600L681.3 585.7C661.7 571.3 622.3 542.7 627.8 514.2C633.3 485.7 683.7 457.3 690 428.8C696.3 400.3 658.7 371.7 658.2 343C657.7 314.3 694.3 285.7 685.2 257C676 228.3 621 199.7 621.3 171.2C621.7 142.7 677.3 114.3 678.3 85.8C679.3 57.3 625.7 28.7 598.8 14.3L572 0L900 0L900 14.3C900 28.7 900 57.3 900 85.8C900 114.3 900 142.7 900 171.2C900 199.7 900 228.3 900 257C900 285.7 900 314.3 900 343C900 371.7 900 400.3 900 428.8C900 457.3 900 485.7 900 514.2C900 542.7 900 571.3 900 585.7L900 600Z" fill="#f2f2f2" stroke-linecap="round" stroke-linejoin="miter"></path></svg>