<svg id="visual" viewBox="0 0 900 600" width="900" height="600" xmlns="http://www.w3.org/2000/svg" xmlns:xlink="http://www.w3.org/1999/xlink" version="1.1"><rect x="0" y="0" width="900" height="600" fill="#FFFAEC"></rect><defs><linearGradient id="grad1_0" x1="33.3%" y1="0%" x2="100%" y2="100%"><stop offset="20%" stop-color="#fffaec" stop-opacity="1"></stop><stop offset="80%" stop-color="#fffaec" stop-opacity="1"></stop></linearGradient></defs><defs><linearGradient id="grad2_0" x1="0%" y1="0%" x2="66.7%" y2="100%"><stop offset="20%" stop-color="#fffaec" stop-opacity="1"></stop><stop offset="80%" stop-color="#fffaec" stop-opacity="1"></stop></linearGradient></defs><g transform="translate(900, 0)"><path d="M0 486.7C-61.7 478.7 -123.4 470.6 -186.3 449.7C-249.1 428.8 -313 395 -342.9 342.9C-372.9 290.9 -368.8 220.5 -387.1 160.3C-405.4 100.1 -446.1 50.1 -486.7 0L0 0Z" fill="#578E7E"></path></g><g transform="translate(0, 600)"><path d="M0 -486.7C44.8 -437.6 89.6 -388.5 154.6 -373.2C219.6 -358 305 -376.6 344.2 -344.2C383.4 -311.8 376.6 -228.5 392.6 -162.6C408.7 -96.8 447.7 -48.4 486.7 0L0 0Z" fill="#578E7E"></path></g></svg>