<svg id="visual" viewBox="0 0 900 600" width="900" height="600" xmlns="http://www.w3.org/2000/svg" xmlns:xlink="http://www.w3.org/1999/xlink" version="1.1"><rect x="0" y="0" width="900" height="600" fill="#8E573F"></rect><path d="M0 249L21.5 271.5C43 294 86 339 128.8 336.7C171.7 334.3 214.3 284.7 257.2 271.3C300 258 343 281 385.8 315.2C428.7 349.3 471.3 394.7 514.2 420C557 445.3 600 450.7 642.8 448.7C685.7 446.7 728.3 437.3 771.2 399C814 360.7 857 293.3 878.5 259.7L900 226L900 601L878.5 601C857 601 814 601 771.2 601C728.3 601 685.7 601 642.8 601C600 601 557 601 514.2 601C471.3 601 428.7 601 385.8 601C343 601 300 601 257.2 601C214.3 601 171.7 601 128.8 601C86 601 43 601 21.5 601L0 601Z" fill="#F5ECD5" stroke-linecap="round" stroke-linejoin="miter"></path></svg>