<svg id="visual" viewBox="0 0 900 600" width="900" height="600" xmlns="http://www.w3.org/2000/svg" xmlns:xlink="http://www.w3.org/1999/xlink" version="1.1"><rect x="0" y="0" width="900" height="600" fill="#F5ECD5"></rect><defs><linearGradient id="grad1_0" x1="33.3%" y1="0%" x2="100%" y2="100%"><stop offset="20%" stop-color="#f5ecd5" stop-opacity="1"></stop><stop offset="80%" stop-color="#f5ecd5" stop-opacity="1"></stop></linearGradient></defs><defs><linearGradient id="grad2_0" x1="0%" y1="0%" x2="66.7%" y2="100%"><stop offset="20%" stop-color="#f5ecd5" stop-opacity="1"></stop><stop offset="80%" stop-color="#f5ecd5" stop-opacity="1"></stop></linearGradient></defs><g transform="translate(900, 0)"><path d="M0 486.7C-75.1 478.4 -150.2 470 -169.9 410.2C-189.6 350.5 -154 239.3 -203.6 203.6C-253.3 167.9 -388.3 207.6 -449.7 186.3C-511.1 164.9 -498.9 82.4 -486.7 0L0 0Z" fill="#578E7E"></path></g><g transform="translate(0, 600)"><path d="M0 -486.7C83.5 -499.3 166.9 -511.9 186.3 -449.7C205.6 -387.4 160.8 -250.3 203.6 -203.6C246.5 -156.9 377 -200.6 438.8 -181.8C500.6 -162.9 493.7 -81.5 486.7 0L0 0Z" fill="#578E7E"></path></g></svg>